#format: frame checksums
#version: 1
#hash: MD5
#tb 0: 1/25
#stream#, dts,        pts, duration,     size, hash
0,         -1,          0,        1,    17541, ada85138b571b9d74f26f7fc7862bca7
0,          0,          1,        1,     4236, 991ccab638dd9b83a6aacd78257847d4
0,          1,          2,        1,     4341, 73a7d229c39aeb6e8f3e43c063e0e446
0,          2,          3,        1,     3992, 51f2279089fcbba22f7cf3db2853b84e
0,          3,          4,        1,     4056, a310540507953f4024fe3f4ad1e55760
0,          4,          5,        1,     4307, b3c205523c60cecbd82848b6a192499f
0,          5,          6,        1,     4361, 25f9449eda6954060ef847e27e2ffee4
0,          6,          7,        1,     4225, dc18eb96d94fbf72e00de9a92b311d64
0,          7,          8,        1,     4263, e21e5e96198e020c59fc154d26501de1
0,          8,          9,        1,     4412, c2c5277f85ab883c857d0e34fe65bf50
0,          9,         10,        1,     4291, d88fe9cfae66a181b5679328b069518c
0,         10,         11,        1,     4521, bbc69ebaacaed24af4017ab1e9e3a0d5
0,         11,         12,        1,    17158, 0e4c30d0086769e61fd0ece9e4410251
0,         12,         13,        1,     4598, ddd986534e8745de2f796f4fc15c8e5d
0,         13,         14,        1,     4795, 9ce3f33bf9108c4a88b77edeea940bab
0,         14,         15,        1,     4661, c7235f150240694265bb62b7304e8d9c
0,         15,         16,        1,     4765, 5faa84e8767926dd2768ff069a567db0
0,         16,         17,        1,     4896, 39d2746d57270cf82eceb9eee4cdeaa6
0,         17,         18,        1,     4990, 3640e3ad31e2e8f7e1d2b26ed343c5b5
0,         18,         19,        1,     5158, 9ff4eeaa89f7a4b5f5daafc362a13ff1
0,         19,         20,        1,     5367, 8cdeb6bfa696de54c143cf316343bbc2
0,         20,         21,        1,     5267, b535fc15d45508b818e17a47ed906713
0,         21,         22,        1,     5345, f897ffd1c66d5a3db62f9b41eee4c3ff
0,         22,         23,        1,     5430, 9869fdfe6955f294e746d879091bb66e
0,         23,         24,        1,    19632, 110802f71f1c522c36e6d005d317ba62
0,         24,         25,        1,     5661, 6a5248d28a633dee3fcdb99319b3cee8
0,         25,         26,        1,     5552, bb7b53f6f8aa33f777a5952fc69c83f7
0,         26,         27,        1,     5793, f23c2c12308507c13ed6ac9bdd46a6bc
0,         27,         28,        1,     5791, f5f9f63c7a3bbc8a46b36b356de82c99
0,         28,         29,        1,     5905, 39fbbd596e2e160bcd18c1b1cee377e1
0,         29,         30,        1,     6390, cf3d34096cd7b938364626cf26988c2a
0,         30,         31,        1,     6290, c4db6844b197072eaf80d14a64d7246f
0,         31,         32,        1,     6121, a64b2a1d2be84fa1a04e88e3fe8bef80
0,         32,         33,        1,     6539, 25959918c5c44d4e2da3acec0f17c571
0,         33,         34,        1,     6471, 6e3984631489f97377855d3f9f5f7594
0,         34,         35,        1,     6807, a4113b4182b2606bcc4e61b2123312d1
0,         35,         36,        1,    21659, 038acf5348a8b02f22a447a4c29530d2
0,         36,         37,        1,     6974, 0ef8f4ff6be19104f749d8dafc6fb5ec
0,         37,         38,        1,     6816, d0edba8e45b34f1b44e7e8a879fc82bf
0,         38,         39,        1,     6766, d96e9875e012b89ead77ecfcfa3f053e
0,         39,         40,        1,     6891, 304e3cfaf3818d5bd346b7f8d8ed3fa1
0,         40,         41,        1,     6963, eded131dcdb70a597857ed13859e0466
0,         41,         42,        1,     7141, 15bf9469f5ccd05046078a0f2dad3b4a
0,         42,         43,        1,     6892, 78e35a82c8f3b6d805d9d08a36650fa3
0,         43,         44,        1,     6811, 72f557ecb3c50e574792826ff52ad099
0,         44,         45,        1,     7065, 517117f1aad291208fbbe200fe704c67
0,         45,         46,        1,     7074, 17092570c2d0c1e708c07138b9281459
0,         46,         47,        1,     7062, 7e0139848efda9c70b6d64dc2049c915
0,         47,         48,        1,    22879, 3838dfe7e3f79018f8619596173e30d4
0,         48,         49,        1,     6993, 8c2594e86a10f404716737363d1b4bb6
